<?xml version="1.0" encoding="UTF-8" standalone="no" ?>
<!DOCTYPE svg PUBLIC "-//W3C//DTD SVG 1.1//EN" "http://www.w3.org/Graphics/SVG/1.1/DTD/svg11.dtd">
<svg xmlns="http://www.w3.org/2000/svg" xmlns:xlink="http://www.w3.org/1999/xlink" version="1.1" width="500" height="500" viewBox="0 0 500 500" xml:space="preserve">
<desc>Created with Fabric.js 3.6.3</desc>
<defs>
</defs>
<g transform="matrix(1 0 0 1 249.709894045302 359.21632804369955)" style=""  ><path fill="#000000" opacity="1" d="M-103.74 5.62L-103.74 5.62Q-103.74 10.29-107.32 12.49Q-110.89 14.68-116.83 14.68L-116.83 14.68L-123.90 14.23L-127.52 14.23L-127.52-17.48L-123.90-17.48Q-120.54-17.93-116.83-17.93L-116.83-17.93Q-111.94-17.93-108.95-16.01Q-105.96-14.08-105.96-10.14L-105.96-10.14Q-105.96-4.70-111.76-2.98L-111.76-2.98Q-103.74-1.31-103.74 5.62ZM-109.67-10.14L-109.67-10.14Q-109.67-12.63-111.80-14.24Q-113.93-15.85-116.83-15.85L-116.83-15.85Q-120.50-15.85-123.80-15.40L-123.80-15.40L-123.80-3.21L-119.91-3.21Q-115.74-3.21-112.71-5.04Q-109.67-6.88-109.67-10.14ZM-108.18 5.62L-108.18 5.62Q-108.18 2.36-111.10 0.37Q-114.02-1.62-117.96-1.62L-117.96-1.62L-123.80-1.62L-123.80 12.15Q-120.50 12.60-116.83 12.60L-116.83 12.60Q-113.30 12.60-110.74 10.63Q-108.18 8.66-108.18 5.62Z"/><path fill="#000000" opacity="1" d="M-73.16-17.48L-73.16 5.35Q-73.16 9.52-76.69 12.24Q-80.23 14.96-85.03 14.96Q-89.83 14.96-93.39 12.24Q-96.94 9.52-96.94 5.35L-96.94 5.35L-96.94-17.48L-93.23-17.48L-93.23 4.63Q-93.23 8.12-90.55 10.49Q-87.88 12.87-84.21 12.87Q-80.54 12.87-77.89 10.49Q-75.24 8.12-75.24 4.63L-75.24 4.63L-75.24-17.48L-73.16-17.48Z"/><path fill="#000000" opacity="1" d="M-60.84-17.48L-60.84 14.23L-64.55 14.23L-64.55-17.48L-60.84-17.48Z"/><path fill="#000000" opacity="1" d="M-33.66 12.15L-33.66 14.23L-51.78 14.23L-51.78-17.48L-48.06-17.48L-48.06 12.15L-33.66 12.15Z"/><path fill="#000000" opacity="1" d="M-5.46-13.47Q-1.59-9.01-1.59-1.62Q-1.59 5.76-5.46 10.22Q-9.33 14.68-16.22 14.68L-16.22 14.68Q-20.66 14.68-24.60 14.23L-24.60 14.23L-28.22 14.23L-28.22-17.48L-24.60-17.48Q-20.66-17.93-16.22-17.93L-16.22-17.93Q-9.33-17.93-5.46-13.47ZM-8.79 8.36Q-6.02 4.13-6.02-1.62Q-6.02-7.38-8.79-11.61Q-11.55-15.85-16.22-15.85L-16.22-15.85Q-20.57-15.85-24.51-15.40L-24.51-15.40L-24.51 12.15Q-20.57 12.60-16.22 12.60L-16.22 12.60Q-11.55 12.60-8.79 8.36Z"/><path fill="#000000" opacity="1" d="M5.37 10.45Q6.02 11.10 6.02 12.01Q6.02 12.92 5.37 13.57Q4.71 14.23 3.81 14.23Q2.90 14.23 2.24 13.57Q1.59 12.92 1.59 12.01Q1.59 11.10 2.24 10.45Q2.90 9.79 3.81 9.79Q4.71 9.79 5.37 10.45Z"/><path fill="#000000" opacity="1" d="M36.29-12.32L36.29-9.87Q34.56-12.63 31.69-14.24Q28.81-15.85 25.55-15.85L25.55-15.85Q20.52-15.85 18.17-11.95Q15.81-8.06 15.81-1.62Q15.81 4.81 18.17 8.70Q20.52 12.60 25.55 12.60L25.55 12.60Q30.99 12.60 35.56 9.61L35.56 9.61L35.56 11.69Q30.99 14.68 25.55 14.68L25.55 14.68Q18.80 14.68 15.08 10.22Q11.37 5.76 11.37-1.62Q11.37-9.01 15.08-13.47Q18.80-17.93 25.55-17.93L25.55-17.93Q28.77-17.93 31.62-16.44Q34.47-14.94 36.29-12.32L36.29-12.32Z"/><path fill="#000000" opacity="1" d="M64.96-13.47Q68.67-9.01 68.67-1.62Q68.67 5.76 64.96 10.22Q61.25 14.68 54.54 14.68L54.54 14.68Q47.79 14.68 44.08 10.22Q40.36 5.76 40.36-1.62Q40.36-9.01 44.08-13.47Q47.79-17.93 54.54-17.93L54.54-17.93Q61.25-17.93 64.96-13.47ZM63.31 5.62Q64.24 2.54 64.24-1.62Q64.24-5.79 63.31-8.87Q62.38-11.95 60.16-13.90Q57.94-15.85 54.54-15.85L54.54-15.85Q49.51-15.85 47.16-11.95Q44.80-8.06 44.80-1.62Q44.80 4.81 47.16 8.70Q49.51 12.60 54.54 12.60L54.54 12.60Q57.94 12.60 60.16 10.65Q62.38 8.70 63.31 5.62Z"/><path fill="#000000" opacity="1" d="M90.92-0.13L100.57 14.23L96.13 14.23L86.66 0.23Q83.08 0.23 79.18-0.49L79.18-0.49L79.18 14.23L75.47 14.23L75.47-17.48L79.09-17.48Q82.67-17.93 86.66-17.93L86.66-17.93Q92.32-17.93 95.79-15.69Q99.25-13.45 99.25-8.87L99.25-8.87Q99.25-5.20 97.03-3.05Q94.81-0.90 90.92-0.13L90.92-0.13ZM94.81-8.87L94.81-8.87Q94.81-11.86 92.39-13.86Q89.97-15.85 86.66-15.85L86.66-15.85Q82.76-15.85 79.18-15.40L79.18-15.40L79.18-2.58Q83.08-1.85 86.66-1.85L86.66-1.85Q89.97-1.85 92.39-3.84Q94.81-5.84 94.81-8.87Z"/><path fill="#000000" opacity="1" d="M129.33-8.87L129.33-8.87Q129.33-4.25 125.87-2.01Q122.40 0.23 116.74 0.23L116.74 0.23Q113.16 0.23 109.26-0.49L109.26-0.49L109.26 14.23L105.55 14.23L105.55-17.48L109.17-17.48Q112.75-17.93 116.74-17.93L116.74-17.93Q122.40-17.93 125.87-15.69Q129.33-13.45 129.33-8.87ZM124.89-8.87L124.89-8.87Q124.89-11.86 122.47-13.86Q120.04-15.85 116.74-15.85L116.74-15.85Q112.84-15.85 109.26-15.40L109.26-15.40L109.26-2.58Q113.16-1.85 116.74-1.85L116.74-1.85Q120.04-1.85 122.47-3.84Q124.89-5.84 124.89-8.87Z"/></g><g transform="matrix(1.968620354655101 0 0 1.968620354655101 248.5027964727998 217.4310177327551)"  >
<g style=""   >
		<g transform="matrix(1 0 0 1 10.683752050000002 -15.957491400000006)"  >
<polygon style="stroke: none; stroke-width: 1; stroke-dasharray: none; stroke-linecap: butt; stroke-dashoffset: 0; stroke-linejoin: miter; stroke-miterlimit: 4; fill: rgb(38,38,38); fill-rule: nonzero; opacity: 1;"  points="0.11939814999999498,28.9712663 25.149316750000004,14.3820825 25.03021435,-14.5888858 -0.1193637500000051,-28.9712663 -25.149316750000004,-14.3820853 0.0002956499999982043,-0.000295200000000051 " />
</g>
		<g transform="matrix(1 0 0 1 10.803741450000004 24.14883039999999)"  >
<polygon style="stroke: none; stroke-width: 1; stroke-dasharray: none; stroke-linecap: butt; stroke-dashoffset: 0; stroke-linejoin: miter; stroke-miterlimit: 4; fill: rgb(38,38,38); fill-rule: nonzero; opacity: 1;"  points="25.030471849999998,-21.779926299999996 25.029327350000003,-21.779926299999996 -0.0005912500000064824,-7.191043799999992 -25.14957425,-21.572830199999995 -25.030544250000005,7.3978462 0.1197357499999967,21.779926299999996 25.14957425,7.190746299999997 " />
</g>
		<g transform="matrix(1 0 0 1 -17.736035150000006 0.9069337999999973)"  >
<polygon style="stroke: none; stroke-width: 1; stroke-dasharray: none; stroke-linecap: butt; stroke-dashoffset: 0; stroke-linejoin: miter; stroke-miterlimit: 4; fill: rgb(38,38,38); fill-rule: nonzero; opacity: 1;"  points="25.08976435,-14.589032199999998 -0.059809849999997056,-28.971117999999997 -25.089764349999996,-14.381936099999997 -24.970031949999996,14.589030299999997 0.17954325000000182,28.971117999999997 0.05988575000000296,0.00044540000000381497 " />
</g>
</g>
</g>
</svg>