<?xml version="1.0" encoding="UTF-8" standalone="no" ?>
<!DOCTYPE svg PUBLIC "-//W3C//DTD SVG 1.1//EN" "http://www.w3.org/Graphics/SVG/1.1/DTD/svg11.dtd">
<svg xmlns="http://www.w3.org/2000/svg" xmlns:xlink="http://www.w3.org/1999/xlink" version="1.1" width="500" height="500" viewBox="0 0 500 500" xml:space="preserve">
<desc>Created with Fabric.js 3.6.3</desc>
<defs>
</defs>
<g transform="matrix(1 0 0 1 249.26 372.1395105764742)" style=""  ><path fill="#3B3B3B" opacity="1" d="M-168.15-16.17C-168.15-17.09-168.85-17.78-169.77-17.78L-199.26-17.78C-200.18-17.78-200.87-17.09-200.87-16.17L-200.87-11.56C-200.87-10.64-200.18-9.95-199.26-9.95L-189.58-9.95L-189.58 12.86C-189.58 13.78-188.89 14.47-187.97 14.47L-181.06 14.47C-180.13 14.47-179.44 13.78-179.44 12.86L-179.44-9.95L-169.77-9.95C-168.85-9.95-168.15-10.64-168.15-11.56Z"/><path fill="#3B3B3B" opacity="1" d="M-136.82 0.19C-136.82 0.19-130.60-1.19-130.60-7.18C-130.60-12.94-135.44-17.78-145.58-17.78L-162.40-17.78C-163.32-17.78-164.01-17.09-164.01-16.17L-164.01 12.86C-164.01 13.78-163.32 14.47-162.40 14.47L-155.48 14.47C-154.56 14.47-153.87 13.78-153.87 12.86L-153.87 3.42L-147.88 3.42C-145.35 3.42-144.47 4.34-143.73 5.72L-139.82 12.86C-139.31 13.78-138.67 14.47-136.82 14.47L-129.68 14.47C-128.53 14.47-128.16 13.55-128.53 12.86L-132.45 5.72C-134.75 1.57-136.82 0.65-136.82 0.65ZM-153.87-3.96L-153.87-10.41L-145.58-10.41C-142.58-10.41-141.20-9.02-141.20-7.18C-141.20-5.34-142.58-3.96-145.58-3.96Z"/><path fill="#3B3B3B" opacity="1" d="M-107.43 15.40C-96.14 15.40-90.38 9.87-90.38 1.07L-90.38-16.17C-90.38-17.09-91.07-17.78-91.99-17.78L-98.90-17.78C-99.82-17.78-100.52-17.09-100.52-16.17L-100.52 1.11C-100.52 5.26-103.05 7.79-107.43 7.79C-111.80 7.79-114.34 5.26-114.34 1.11L-114.34-16.17C-114.34-17.09-115.03-17.78-115.95-17.78L-122.86-17.78C-123.78-17.78-124.47-17.09-124.47-16.17L-124.47 1.11C-124.47 9.87-118.95 15.40-107.43 15.40Z"/><path fill="#3B3B3B" opacity="1" d="M-66.19-18.70C-78.40-18.70-85.08-12.02-85.08-1.65C-85.08 8.71-78.40 15.40-66.19 15.40C-55.13 15.40-49.14 9.41-49.14 3.88C-49.14 2.72-49.83 2.03-50.98 2.03L-56.74 2.03C-58.13 2.03-58.86 2.72-59.51 3.88C-60.66 5.95-62.50 7.79-66.19 7.79C-71.26 7.79-74.48 4.57-74.48-1.65C-74.48-7.87-71.26-11.10-66.19-11.10C-62.73-11.10-61.12-9.49-59.97-7.64C-59.28-6.49-58.59-5.80-57.20-5.80L-51.44-5.80C-50.29-5.80-49.60-6.49-49.60-7.64C-49.60-12.94-55.36-18.70-66.19-18.70Z"/><path fill="#3B3B3B" opacity="1" d="M-20.57-2.57C-20.57-2.57-17.53-3.50-15.04-8.10L-10.67-16.17C-10.30-16.86-10.67-17.78-11.82-17.78L-18.96-17.78C-20.80-17.78-21.45-17.09-21.96-16.17L-26.33-8.10C-27.07-6.72-27.95-5.80-30.48-5.80L-33.94-5.80L-33.94-16.17C-33.94-17.09-34.63-17.78-35.55-17.78L-42.46-17.78C-43.38-17.78-44.07-17.09-44.07-16.17L-44.07 12.86C-44.07 13.78-43.38 14.47-42.46 14.47L-35.55 14.47C-34.63 14.47-33.94 13.78-33.94 12.86L-33.94 2.03L-29.79 2.03C-27.25 2.03-26.38 2.96-25.64 4.34L-21.03 12.86C-20.53 13.78-19.88 14.47-18.04 14.47L-10.90 14.47C-9.75 14.47-9.38 13.55-9.75 12.86L-14.35 4.34C-17.35-1.19-20.57-2.11-20.57-2.11Z"/><path fill="#3B3B3B" opacity="1" d="M3.99-8.33C3.99-9.72 5.37-11.10 9.51-11.10C12.97-11.10 14.40-9.72 14.81-9.02C15.46-7.87 16.20-7.18 17.58-7.18L23.34-7.18C24.49-7.18 25.18-7.87 25.18-9.02C25.18-13.63 20.11-18.70 9.51-18.70C-1.77-18.70-6.61-13.86-6.61-8.33C-6.61 4.57 15.73 0.19 15.73 4.80C15.73 6.18 14.12 7.79 9.51 7.79C4.91 7.79 3.52 6.41 2.83 5.26C2.19 4.15 1.45 3.42 0.07 3.42L-5.69 3.42C-6.84 3.42-7.53 4.11-7.53 5.26C-7.53 10.33-2.47 15.40 9.51 15.40C21.26 15.40 26.33 10.33 26.33 4.80C26.33-8.10 3.99-3.73 3.99-8.33Z"/><path fill="#3B3B3B" opacity="1" d=""/><path fill="#3B3B3B" opacity="1" d="M62.96-18.70C50.75-18.70 44.07-12.02 44.07-1.65C44.07 8.71 50.75 15.40 62.96 15.40C74.02 15.40 80.01 9.41 80.01 3.88C80.01 2.72 79.32 2.03 78.17 2.03L72.41 2.03C71.03 2.03 70.29 2.72 69.64 3.88C68.49 5.95 66.65 7.79 62.96 7.79C57.89 7.79 54.67 4.57 54.67-1.65C54.67-7.87 57.89-11.10 62.96-11.10C66.42-11.10 68.03-9.49 69.18-7.64C69.87-6.49 70.57-5.80 71.95-5.80L77.71-5.80C78.86-5.80 79.55-6.49 79.55-7.64C79.55-12.94 73.79-18.70 62.96-18.70Z"/><path fill="#3B3B3B" opacity="1" d="M102.59 7.79C97.52 7.79 94.29 4.57 94.29-1.65C94.29-7.87 97.52-11.10 102.59-11.10C107.66-11.10 110.88-7.87 110.88-1.65C110.88 4.57 107.66 7.79 102.59 7.79ZM102.59-18.70C90.38-18.70 83.70-12.02 83.70-1.65C83.70 8.71 90.38 15.40 102.59 15.40C114.80 15.40 121.48 8.71 121.48-1.65C121.48-12.02 114.80-18.70 102.59-18.70Z"/><path fill="#3B3B3B" opacity="1" d="M154.19 0.19C154.19 0.19 160.41-1.19 160.41-7.18C160.41-12.94 155.58-17.78 145.44-17.78L128.62-17.78C127.70-17.78 127.01-17.09 127.01-16.17L127.01 12.86C127.01 13.78 127.70 14.47 128.62 14.47L135.53 14.47C136.45 14.47 137.15 13.78 137.15 12.86L137.15 3.42L143.14 3.42C145.67 3.42 146.55 4.34 147.28 5.72L151.20 12.86C151.71 13.78 152.35 14.47 154.19 14.47L161.34 14.47C162.49 14.47 162.86 13.55 162.49 12.86L158.57 5.72C156.27 1.57 154.19 0.65 154.19 0.65ZM137.15-3.96L137.15-10.41L145.44-10.41C148.43-10.41 149.82-9.02 149.82-7.18C149.82-5.34 148.43-3.96 145.44-3.96Z"/><path fill="#3B3B3B" opacity="1" d="M200.41-6.03C200.41-12.71 195.34-17.78 184.51-17.78L168.39-17.78C167.46-17.78 166.77-17.09 166.77-16.17L166.77 12.86C166.77 13.78 167.46 14.47 168.39 14.47L175.30 14.47C176.22 14.47 176.91 13.78 176.91 12.86L176.91 5.72L184.51 5.72C195.34 5.72 200.41 0.65 200.41-6.03ZM176.91-1.65L176.91-10.41L184.51-10.41C187.97-10.41 189.81-8.56 189.81-6.03C189.81-3.50 187.97-1.65 184.51-1.65Z"/></g><g transform="matrix(2.39 0 0 2.39 249.13 221.10000000000002)"  >
<g style=""   >
		<g transform="matrix(1 0 0 1 0.011596700000000126 -16.8017349)"  >
<circle style="stroke: none; stroke-width: 1; stroke-dasharray: none; stroke-linecap: butt; stroke-dashoffset: 0; stroke-linejoin: miter; stroke-miterlimit: 4; fill: rgb(59,59,59); fill-rule: nonzero; opacity: 1;"  cx="0" cy="0" r="10.2745008" />
</g>
		<g transform="matrix(-0.5843658999999999 0.8114903000000001 -0.8114903000000001 -0.5843658999999999 13.94379548437582 -29.157359009973682)"  >
<ellipse style="stroke: none; stroke-width: 1; stroke-dasharray: none; stroke-linecap: butt; stroke-dashoffset: 0; stroke-linejoin: miter; stroke-miterlimit: 4; fill: rgb(59,59,59); fill-rule: nonzero; opacity: 1;"  cx="0" cy="0" rx="6.1090407" ry="8.8314695" />
</g>
		<g transform="matrix(1 0 0 1 25.140448583586398 -34.73969432881697)"  >
<path style="stroke: none; stroke-width: 1; stroke-dasharray: none; stroke-linecap: butt; stroke-dashoffset: 0; stroke-linejoin: miter; stroke-miterlimit: 4; fill: rgb(59,59,59); fill-rule: nonzero; opacity: 1;"  transform=" translate(-74.64044858358639, -14.76030567118304)" d="M 72.8996124 17.3064728 c 2.666748 1.8195763 5.6057663 2.1586323 6.5647583 0.7546539 c 0.9620514 -1.4055042 -0.4176102 -4.0253134 -3.0801086 -5.8463621 c -2.6683884 -1.8216496 -5.6058807 -2.1593409 -6.5692368 -0.7531281 C 68.8558197 12.865778 70.2355881 15.4839516 72.8996124 17.3064728 z" stroke-linecap="round" />
</g>
		<g transform="matrix(1 0 0 1 -0.09294999249053504 -40.45248082522868)"  >
<path style="stroke: none; stroke-width: 1; stroke-dasharray: none; stroke-linecap: butt; stroke-dashoffset: 0; stroke-linejoin: miter; stroke-miterlimit: 4; fill: rgb(59,59,59); fill-rule: nonzero; opacity: 1;"  transform=" translate(-49.40705000750947, -9.047519174771319)" d="M 49.3540955 12.865778 c 3.996582 0.0536461 7.260643 -1.6115322 7.2899742 -3.7149906 c 0.0280228 -2.1086378 -3.1875191 -3.8656812 -7.1811562 -3.9215636 c -3.9994164 -0.0528288 -7.260643 1.6108232 -7.2929192 3.7207694 C 42.1449165 11.0542145 45.3589287 12.8120222 49.3540955 12.865778 z" stroke-linecap="round" />
</g>
		<g transform="matrix(1 0 0 1 -14.221159460308485 -28.683275285094098)"  >
<path style="stroke: none; stroke-width: 1; stroke-dasharray: none; stroke-linecap: butt; stroke-dashoffset: 0; stroke-linejoin: miter; stroke-miterlimit: 4; fill: rgb(59,59,59); fill-rule: nonzero; opacity: 1;"  transform=" translate(-35.278840539691515, -20.816724714905902)" d="M 28.1121197 25.9784546 c 1.9710865 2.7381706 6.7795658 2.6455421 10.7365665 -0.2029209 c 3.9597282 -2.8522243 5.5688057 -7.3804779 3.5978317 -10.1201744 c -1.9740334 -2.7389879 -6.7810936 -2.6461964 -10.7378788 0.2045565 C 27.7488041 18.706852 26.139616 23.2388668 28.1121197 25.9784546 z" stroke-linecap="round" />
</g>
		<g transform="matrix(1 0 0 1 -24.02015261605884 -34.45162830000267)"  >
<path style="stroke: none; stroke-width: 1; stroke-dasharray: none; stroke-linecap: butt; stroke-dashoffset: 0; stroke-linejoin: miter; stroke-miterlimit: 4; fill: rgb(59,59,59); fill-rule: nonzero; opacity: 1;"  transform=" translate(-25.47984738394116, -15.048371699997336)" d="M 27.2193146 17.5947704 c 2.6653328 -1.8231211 4.0451031 -4.4406958 3.0860023 -5.8456001 c -0.96488 -1.4060488 -3.9023724 -1.0677576 -6.5678158 0.7531281 c -2.663805 1.8218126 -4.0435772 4.4401493 -3.0816402 5.847126 C 21.6149616 19.7534008 24.5538712 19.4143467 27.2193146 17.5947704 z" stroke-linecap="round" />
</g>
		<g transform="matrix(1 0 0 1 -16.821167000000003 0.031002000000004415)"  >
<circle style="stroke: none; stroke-width: 1; stroke-dasharray: none; stroke-linecap: butt; stroke-dashoffset: 0; stroke-linejoin: miter; stroke-miterlimit: 4; fill: rgb(59,59,59); fill-rule: nonzero; opacity: 1;"  cx="0" cy="0" r="10.2750406" />
</g>
		<g transform="matrix(-0.8114829999999998 0.5843760000000001 -0.5843760000000001 -0.811483 -29.988333556622507 14.546822064845504)"  >
<ellipse style="stroke: none; stroke-width: 1; stroke-dasharray: none; stroke-linecap: butt; stroke-dashoffset: 0; stroke-linejoin: miter; stroke-miterlimit: 4; fill: rgb(59,59,59); fill-rule: nonzero; opacity: 1;"  cx="0" cy="0" rx="6.1096339" ry="8.8321218" />
</g>
		<g transform="matrix(1 0 0 1 -34.69242085833126 25.093613793626204)"  >
<path style="stroke: none; stroke-width: 1; stroke-dasharray: none; stroke-linecap: butt; stroke-dashoffset: 0; stroke-linejoin: miter; stroke-miterlimit: 4; fill: rgb(59,59,59); fill-rule: nonzero; opacity: 1;"  transform=" translate(-14.807579141668743, -74.5936137936262)" d="M 11.5096169 69.7685776 c -1.4062672 0.9626389 -1.0694485 3.9008942 0.7531281 6.5677032 c 1.8210487 2.663208 4.4391689 4.042923 5.8454361 3.0810394 c 1.4034309 -0.9591522 1.0650864 -3.8980103 -0.7546558 -6.5648117 C 15.531168 70.1877747 12.9128313 68.8095856 11.5096169 69.7685776 z" stroke-linecap="round" />
</g>
		<g transform="matrix(1 0 0 1 -40.47117158179747 -0.07317185699873363)"  >
<path style="stroke: none; stroke-width: 1; stroke-dasharray: none; stroke-linecap: butt; stroke-dashoffset: 0; stroke-linejoin: miter; stroke-miterlimit: 4; fill: rgb(59,59,59); fill-rule: nonzero; opacity: 1;"  transform=" translate(-9.02882841820253, -49.426828143001266)" d="M 12.8467541 49.3739357 c -0.0545197 -3.9959259 -1.8124352 -7.2099419 -3.9156761 -7.1842079 c -2.1108727 0.032383 -3.7745795 3.2934494 -3.7201691 7.2922096 c 0.0545192 3.9936943 1.812326 7.2092323 3.9215631 7.1819725 C 11.2359304 56.6345253 12.9010553 53.3697548 12.8467541 49.3739357 z" stroke-linecap="round" />
</g>
		<g transform="matrix(1 0 0 1 -28.702419052041762 -14.20170881855391)"  >
<path style="stroke: none; stroke-width: 1; stroke-dasharray: none; stroke-linecap: butt; stroke-dashoffset: 0; stroke-linejoin: miter; stroke-miterlimit: 4; fill: rgb(59,59,59); fill-rule: nonzero; opacity: 1;"  transform=" translate(-20.797580947958238, -35.29829118144609)" d="M 15.6355181 42.4655418 c 2.7404604 1.9718475 7.2679491 0.3619499 10.1217012 -3.597229 c 2.8477535 -3.9574928 2.9404354 -8.7660828 0.2013931 -10.7371693 c -2.7403507 -1.9717941 -7.2708931 -0.3625526 -10.1185389 3.5964661 C 12.9893761 35.685318 12.8980017 40.4923286 15.6355181 42.4655418 z" stroke-linecap="round" />
</g>
		<g transform="matrix(1 0 0 1 -34.471206449601574 -24.001233157464767)"  >
<path style="stroke: none; stroke-width: 1; stroke-dasharray: none; stroke-linecap: butt; stroke-dashoffset: 0; stroke-linejoin: miter; stroke-miterlimit: 4; fill: rgb(59,59,59); fill-rule: nonzero; opacity: 1;"  transform=" translate(-15.02879355039843, -25.498766842535233)" d="M 17.5757465 27.2389927 c 1.8181038 -2.6660423 2.1578674 -5.6050606 0.7531281 -6.5640545 c -1.4062672 -0.9612808 -4.0244961 0.4178352 -5.8454361 3.0816422 c -1.8211584 2.6654415 -2.1593952 5.6042976 -0.7532368 6.5671062 C 13.1335249 31.2826786 15.7517529 29.9044876 17.5757465 27.2389927 z" stroke-linecap="round" />
</g>
		<g transform="matrix(1 0 0 1 0.8512632272702412 17.703430825224444)"  >
<path style="stroke: none; stroke-width: 1; stroke-dasharray: none; stroke-linecap: butt; stroke-dashoffset: 0; stroke-linejoin: miter; stroke-miterlimit: 4; fill: rgb(59,59,59); fill-rule: nonzero; opacity: 1;"  transform=" translate(-50.35126322727024, -67.20343082522444)" d="M 57.6163635 74.4690018 c 4.0113029 -4.0120697 4.0143547 -10.5195312 0.0030556 -14.5323067 c -4.0128288 -4.0126648 -10.5217628 -4.0105362 -14.5343742 0.0015297 c -4.0128288 4.0127716 -4.0113029 10.5187073 0.0013084 14.5315399 C 47.0991821 78.4817734 53.603756 78.4817734 57.6163635 74.4690018 z" stroke-linecap="round" />
</g>
		<g transform="matrix(0.5844578000000001 -0.8114240999999999 0.8114240999999999 0.5844578000000001 -13.57989077709099 29.55940322237658)"  >
<ellipse style="stroke: none; stroke-width: 1; stroke-dasharray: none; stroke-linecap: butt; stroke-dashoffset: 0; stroke-linejoin: miter; stroke-miterlimit: 4; fill: rgb(59,59,59); fill-rule: nonzero; opacity: 1;"  cx="0" cy="0" rx="6.1095729" ry="8.8321686" />
</g>
		<g transform="matrix(1 0 0 1 -23.711229522916973 36.07471303287214)"  >
<path style="stroke: none; stroke-width: 1; stroke-dasharray: none; stroke-linecap: butt; stroke-dashoffset: 0; stroke-linejoin: miter; stroke-miterlimit: 4; fill: rgb(59,59,59); fill-rule: nonzero; opacity: 1;"  transform=" translate(-25.788770477083027, -85.57471303287214)" d="M 27.5296364 83.0283966 c -2.6668587 -1.819519 -5.6058788 -2.158577 -6.5648708 -0.7546005 c -0.9620438 1.4062119 0.4178352 4.0252609 3.0816422 5.8463669 c 2.6668587 1.8218079 5.604351 2.1593399 6.5679226 0.7538376 C 31.5733242 87.4693146 30.1936607 84.850975 27.5296364 83.0283966 z" stroke-linecap="round" />
</g>
		<g transform="matrix(1 0 0 1 1.4553119656327453 41.853568668676054)"  >
<path style="stroke: none; stroke-width: 1; stroke-dasharray: none; stroke-linecap: butt; stroke-dashoffset: 0; stroke-linejoin: miter; stroke-miterlimit: 4; fill: rgb(59,59,59); fill-rule: nonzero; opacity: 1;"  transform=" translate(-50.955311965632745, -91.35356866867605)" d="M 51.0073318 87.5353851 c -3.9949455 -0.0535889 -7.2604256 1.6114273 -7.2883377 3.7156448 c -0.0280228 2.1078262 3.1875153 3.8656311 7.1810455 3.9207458 c 3.999527 0.0530472 7.2591171 -1.6098404 7.2916107 -3.7199478 C 58.2180367 89.3476028 55.0039139 87.589798 51.0073318 87.5353851 z" stroke-linecap="round" />
</g>
		<g transform="matrix(1 0 0 1 15.584355770761249 30.084685139723817)"  >
<path style="stroke: none; stroke-width: 1; stroke-dasharray: none; stroke-linecap: butt; stroke-dashoffset: 0; stroke-linejoin: miter; stroke-miterlimit: 4; fill: rgb(59,59,59); fill-rule: nonzero; opacity: 1;"  transform=" translate(-65.08435577076125, -79.58468513972382)" d="M 72.2508316 74.4233627 c -1.9710846 -2.7388229 -6.7795639 -2.6461945 -10.7378731 0.2030334 c -3.9583092 2.8514633 -5.5676079 7.3804779 -3.5949936 10.1200638 c 1.9725037 2.7381744 6.7780418 2.6463089 10.7363472 -0.2051544 C 72.614151 81.695076 74.2233353 77.163063 72.2508316 74.4233627 z" stroke-linecap="round" />
</g>
		<g transform="matrix(1 0 0 1 25.339283994372188 35.80895805622037)"  >
<path style="stroke: none; stroke-width: 1; stroke-dasharray: none; stroke-linecap: butt; stroke-dashoffset: 0; stroke-linejoin: miter; stroke-miterlimit: 4; fill: rgb(59,59,59); fill-rule: nonzero; opacity: 1;"  transform=" translate(-74.83928399437218, -85.30895805622038)" d="M 73.0980606 82.7622375 c -2.665329 1.8231735 -4.04216 4.4415131 -3.0829468 5.8454895 c 0.961937 1.4062119 3.9008484 1.0679169 6.5661774 -0.7531281 c 2.6639175 -1.8210526 4.04216 -4.4399872 3.0816422 -5.846199 C 78.7039413 80.6042557 75.7649231 80.9433136 73.0980606 82.7622375 z" stroke-linecap="round" />
</g>
		<g transform="matrix(1 0 0 1 17.1842041 0.37005620000000405)"  >
<circle style="stroke: none; stroke-width: 1; stroke-dasharray: none; stroke-linecap: butt; stroke-dashoffset: 0; stroke-linejoin: miter; stroke-miterlimit: 4; fill: rgb(59,59,59); fill-rule: nonzero; opacity: 1;"  cx="0" cy="0" r="10.2750788" />
</g>
		<g transform="matrix(1 0 0 1 30.153693784511326 -13.759387715142068)"  >
<path style="stroke: none; stroke-width: 1; stroke-dasharray: none; stroke-linecap: butt; stroke-dashoffset: 0; stroke-linejoin: miter; stroke-miterlimit: 4; fill: rgb(59,59,59); fill-rule: nonzero; opacity: 1;"  transform=" translate(-79.65369378451132, -35.74061228485793)" d="M 84.6096725 32.1704674 c -2.8461151 -3.9597797 -7.3781815 -5.5690765 -10.1171188 -3.5964642 c -2.7388229 1.9710846 -2.6476669 6.7788563 0.2030258 10.7379322 c 2.8508072 3.9567261 7.3812408 5.5682602 10.1200714 3.5956993 C 87.5545807 40.9350243 87.4618988 36.1280136 84.6096725 32.1704674 z" stroke-linecap="round" />
</g>
		<g transform="matrix(1 0 0 1 36.12210028004133 -23.758347674178395)"  >
<path style="stroke: none; stroke-width: 1; stroke-dasharray: none; stroke-linecap: butt; stroke-dashoffset: 0; stroke-linejoin: miter; stroke-miterlimit: 4; fill: rgb(59,59,59); fill-rule: nonzero; opacity: 1;"  transform=" translate(-85.62210028004134, -25.741652325821605)" d="M 88.921051 30.5670605 c 1.4062653 -0.9634094 1.0679245 -3.9016094 -0.7545471 -6.56847 c -1.8209381 -2.6631508 -4.4392776 -4.04216 -5.8455429 -3.0808773 c -1.4033203 0.9590473 -1.0648651 3.8980656 0.7546539 6.5648708 C 84.8979721 30.1471539 87.5164185 31.5253429 88.921051 30.5670605 z" stroke-linecap="round" />
</g>
		<g transform="matrix(1 0 0 1 41.83493998284604 1.4746360435632155)"  >
<path style="stroke: none; stroke-width: 1; stroke-dasharray: none; stroke-linecap: butt; stroke-dashoffset: 0; stroke-linejoin: miter; stroke-miterlimit: 4; fill: rgb(59,59,59); fill-rule: nonzero; opacity: 1;"  transform=" translate(-91.33493998284604, -50.974636043563216)" d="M 91.2320099 43.738018 c -2.103569 0.0286217 -3.768692 3.2934494 -3.7155914 7.2892113 c 0.0529938 3.9965286 1.8121109 7.2105408 3.9155655 7.1840439 c 2.110878 -0.0322189 3.7744751 -3.2926292 3.7214813 -7.2922096 C 95.0976334 46.9255333 93.3398285 43.7099953 91.2320099 43.738018 z" stroke-linecap="round" />
</g>
		<g transform="matrix(1 0 0 1 30.065481451236884 15.60336695999311)"  >
<path style="stroke: none; stroke-width: 1; stroke-dasharray: none; stroke-linecap: butt; stroke-dashoffset: 0; stroke-linejoin: miter; stroke-miterlimit: 4; fill: rgb(59,59,59); fill-rule: nonzero; opacity: 1;"  transform=" translate(-79.56548145123688, -65.10336695999311)" d="M 74.4043427 72.2698593 c 2.7389297 1.9726105 7.2708893 0.3633118 10.1171188 -3.5964661 c 2.8508072 -3.95755 2.9449081 -8.7637939 0.2059784 -10.7371674 c -2.7403564 -1.9717941 -7.269371 -0.3617897 -10.1200714 3.597229 C 71.7580872 65.4909973 71.6655197 70.2995377 74.4043427 72.2698593 z" stroke-linecap="round" />
</g>
		<g transform="matrix(1 0 0 1 35.78973035551582 25.35855889372032)"  >
<path style="stroke: none; stroke-width: 1; stroke-dasharray: none; stroke-linecap: butt; stroke-dashoffset: 0; stroke-linejoin: miter; stroke-miterlimit: 4; fill: rgb(59,59,59); fill-rule: nonzero; opacity: 1;"  transform=" translate(-85.28973035551581, -74.85855889372033)" d="M 82.7431564 73.1186676 c -1.819519 2.6652756 -2.1579742 5.6050034 -0.7545471 6.5640564 c 1.4061584 0.9612808 4.0259171 -0.4184418 5.8468552 -3.0824051 c 1.8211594 -2.6652832 2.1593933 -5.6035385 0.7532349 -6.5669479 C 87.1838531 69.074379 84.5656204 70.4525681 82.7431564 73.1186676 z" stroke-linecap="round" />
</g>
</g>
</g>
</svg>